<?xml version="1.0" standalone="no"?><!DOCTYPE svg PUBLIC "-//W3C//DTD SVG 1.1//EN" "http://www.w3.org/Graphics/SVG/1.1/DTD/svg11.dtd"><svg t="1734444494290" class="icon" viewBox="0 0 1024 1024" version="1.1" xmlns="http://www.w3.org/2000/svg" p-id="8923" xmlns:xlink="http://www.w3.org/1999/xlink" width="200" height="200"><path d="M239.073549 161.684211A108.005053 108.005053 0 0 1 161.626813 239.130947v545.738106c37.888 9.701053 67.691789 39.558737 77.446736 77.446736H350.258392v53.894737H239.073549A107.789474 107.789474 0 1 1 107.732076 784.869053V239.130947A107.789474 107.789474 0 1 1 239.073549 107.789474h545.738106A107.789474 107.789474 0 1 1 916.153128 239.130947V323.368421h-53.894736V239.130947A108.005053 108.005053 0 0 1 784.811655 161.684211H239.073549zM188.574181 134.736842a53.894737 53.894737 0 1 1-107.789474 0 53.894737 53.894737 0 0 1 107.789474 0z m754.526316 0a53.894737 53.894737 0 1 1-107.789474 0 53.894737 53.894737 0 0 1 107.789474 0z m-754.526316 754.526316a53.894737 53.894737 0 1 1-107.789474 0 53.894737 53.894737 0 0 1 107.789474 0zM889.20576 997.052632a107.789474 107.789474 0 0 0 26.947368-212.183579V700.631579h-53.894736v84.237474A108.005053 108.005053 0 0 0 784.811655 862.315789H700.574181v53.894737h84.237474A107.789474 107.789474 0 0 0 889.20576 997.052632z m0-53.894737a53.894737 53.894737 0 1 0 0-107.789474 53.894737 53.894737 0 0 0 0 107.789474z" fill="#7dc5eb" p-id="8924"></path><path d="M458.047865 862.315789h134.736842v53.894737H458.047865v-53.894737zM916.153128 592.842105V431.157895h-53.894736v161.68421h53.894736z" fill="#7dc5eb" p-id="8925"></path></svg>